<svg width="52" height="41" viewBox="0 0 52 41" fill="none" xmlns="http://www.w3.org/2000/svg">
<path d="M1.00014 8.25738V1H8.25751M8.25751 40.2573H1.00014V32.9999M43.7434 40.2573H51V32.9999M43.7434 1.00005H51V8.25743" stroke="#B28E4C" stroke-miterlimit="20" stroke-linecap="round"/>
<path d="M26.2132 6.21343C26.4848 6.21148 26.754 6.26352 27.0052 6.36653C27.2564 6.46953 27.4847 6.62145 27.6767 6.81345L31.8842 11.0209C32.0751 11.2101 32.2267 11.4352 32.3301 11.6832C32.4335 11.9313 32.4868 12.1973 32.4868 12.4661C32.4868 12.7348 32.4335 13.0009 32.3301 13.249C32.2267 13.497 32.0751 13.7221 31.8842 13.9113L27.6767 18.1187C27.4887 18.3103 27.2644 18.4625 27.0169 18.5664C26.7694 18.6703 26.5036 18.7238 26.2352 18.7238C25.9668 18.7238 25.701 18.6703 25.4535 18.5664C25.206 18.4625 24.9817 18.3103 24.7937 18.1187L20.5643 13.8966C20.3733 13.7075 20.2218 13.4824 20.1183 13.2343C20.0149 12.9863 19.9617 12.7202 19.9617 12.4515C19.9617 12.1827 20.0149 11.9166 20.1183 11.6686C20.2218 11.4205 20.3733 11.1954 20.5643 11.0063L24.7498 6.81345C24.9418 6.62145 25.17 6.46953 25.4213 6.36653C25.6725 6.26352 25.9417 6.21148 26.2132 6.21343ZM17.469 14.9942C17.7406 14.9923 18.0098 15.0443 18.261 15.1473C18.5122 15.2503 18.7405 15.4022 18.9325 15.5942L23.118 19.7505C23.3089 19.9396 23.4605 20.1647 23.5639 20.4128C23.6674 20.6608 23.7206 20.9269 23.7206 21.1957C23.7206 21.4644 23.6674 21.7305 23.5639 21.9786C23.4605 22.2266 23.3089 22.4517 23.118 22.6408L18.8959 26.8629C18.7068 27.0539 18.4817 27.2054 18.2336 27.3088C17.9856 27.4123 17.7195 27.4655 17.4507 27.4655C17.182 27.4655 16.9159 27.4123 16.6679 27.3088C16.4198 27.2054 16.1947 27.0539 16.0056 26.8629L11.8127 22.6774C11.6227 22.4878 11.4719 22.2625 11.369 22.0145C11.2662 21.7666 11.2132 21.5007 11.2132 21.2322C11.2132 20.9638 11.2662 20.6979 11.369 20.4499C11.4719 20.202 11.6227 19.9767 11.8127 19.7871L16.0202 15.5796C16.4018 15.1887 16.9228 14.965 17.469 14.9576V14.9942ZM34.9575 14.9942C35.2289 14.9931 35.4978 15.0455 35.749 15.1484C36.0001 15.2514 36.2284 15.4029 36.4209 15.5942L40.6137 19.7505C40.8038 19.9401 40.9546 20.1654 41.0575 20.4134C41.1603 20.6613 41.2133 20.9272 41.2133 21.1957C41.2133 21.4641 41.1603 21.73 41.0575 21.978C40.9546 22.2259 40.8038 22.4512 40.6137 22.6408L36.4063 26.8483C36.2166 27.0448 35.9892 27.2011 35.7378 27.3078C35.4863 27.4146 35.216 27.4696 34.9428 27.4696C34.6697 27.4696 34.3993 27.4146 34.1479 27.3078C33.8964 27.2011 33.6691 27.0448 33.4793 26.8483L29.3085 22.6774C29.1175 22.4883 28.966 22.2632 28.8626 22.0151C28.7591 21.7671 28.7059 21.501 28.7059 21.2322C28.7059 20.9635 28.7591 20.6974 28.8626 20.4494C28.966 20.2013 29.1175 19.9762 29.3085 19.7871L33.5306 15.5577C33.7226 15.3657 33.9508 15.2137 34.2021 15.1107C34.4533 15.0077 34.7225 14.9557 34.994 14.9576L34.9575 14.9942ZM26.1767 23.775C26.4485 23.771 26.7183 23.8221 26.9698 23.9252C27.2213 24.0283 27.4494 24.1814 27.6401 24.375L31.8622 28.5313C32.0587 28.721 32.215 28.9484 32.3218 29.1998C32.4285 29.4512 32.4835 29.7216 32.4835 29.9947C32.4835 30.2679 32.4285 30.5383 32.3218 30.7897C32.215 31.0411 32.0587 31.2685 31.8622 31.4582L27.6767 35.6145C27.4877 35.8043 27.2631 35.9549 27.0157 36.0577C26.7683 36.1605 26.5031 36.2134 26.2352 36.2134C25.9673 36.2134 25.7021 36.1605 25.4547 36.0577C25.2073 35.9549 24.9827 35.8043 24.7937 35.6145L20.5862 31.407C20.3897 31.2173 20.2334 30.9899 20.1267 30.7385C20.0199 30.487 19.9649 30.2167 19.9649 29.9435C19.9649 29.6704 20.0199 29.4 20.1267 29.1486C20.2334 28.8971 20.3897 28.6698 20.5862 28.4801L24.7498 24.3092C24.9405 24.1155 25.1686 23.9625 25.4201 23.8594C25.6716 23.7562 25.9414 23.7051 26.2132 23.7092L26.1767 23.775Z" stroke="#B0B0B0" stroke-linecap="round" stroke-linejoin="round"/>
</svg>
