<svg width="21" height="22" viewBox="0 0 21 22" fill="none" xmlns="http://www.w3.org/2000/svg">
<path d="M1.14036 8.97488C1.14036 8.97488 0.679972 6.30931 1.42682 5.42261C2.17366 4.53591 3.63666 4.94642 4.39373 4.32792C5.15081 3.70942 4.849 3.02524 6.13296 2.68041C7.41692 2.33558 8.61392 2.68041 8.90038 2.44505C9.18684 2.2097 9.89276 1.00554 11.0233 1.00006C12.1538 0.994589 12.2714 1.35036 13.361 1.82655C14.4506 2.30274 14.9672 2.64757 16.4302 1.78824C17.8932 0.928907 18.5173 1.60214 19.3306 2.54905C20.144 3.49596 19.9445 5.17631 19.8422 5.5485C19.7399 5.9207 19.1311 7.33285 19.1721 8.28523C19.213 9.23761 18.7372 14.7603 18.2104 15.3186C17.6835 15.8769 16.1642 16.1177 15.0798 16.3038C13.9953 16.4899 13.6577 16.0904 13.4889 15.4117C13.2382 14.3827 13.2791 8.44396 13.7549 6.74719" stroke="#B0B0B0" stroke-linecap="round" stroke-linejoin="round"/>
<path d="M13.4275 15.3789C12.6926 15.7914 11.8934 16.0566 11.0693 16.1616C10.2253 16.1616 9.8263 16.2492 9.46311 15.1326C9.24315 14.4703 9.07434 11.7007 9.14596 7.10303" stroke="#B0B0B0" stroke-linecap="round" stroke-linejoin="round"/>
<path d="M9.41197 15.3297C8.77605 15.7697 8.05235 16.0434 7.29932 16.1288C6.45528 16.1288 6.0614 16.2164 5.69309 15.0944C5.47824 14.4321 5.18155 13.1896 5.24294 8.58643" stroke="#B0B0B0" stroke-linecap="round" stroke-linejoin="round"/>
<path d="M5.66237 15.2475C5.5368 15.4727 5.3595 15.6599 5.14731 15.7911C4.93512 15.9224 4.69509 15.9934 4.45003 15.9974C3.61111 16.1014 3.16607 15.97 2.54199 14.9903C2.2453 14.536 1.66726 13.08 1.14038 8.96948" stroke="#B0B0B0" stroke-linecap="round" stroke-linejoin="round"/>
<path d="M14.8598 20.9125C15.3749 20.9845 15.7925 21.0495 16.203 20.9466C16.6685 20.8299 16.9864 20.4232 17.2268 20.0079C17.6097 19.3463 17.9482 18.6564 18.2397 17.9434C18.4153 17.5139 18.5603 17.0499 18.5105 16.5887C18.4979 16.4714 18.4631 16.3928 18.3843 16.3969C17.5232 16.5518 16.6696 16.7499 15.8262 16.9904C15.3243 17.1336 15.845 17.8493 15.3253 17.8966V17.8966C15.1247 17.9149 14.6216 17.4914 14.1307 17.2233C13.9438 17.1212 13.7374 17.0629 13.5279 17.0249C12.7871 16.8905 12.0357 16.8323 11.2841 16.8512C10.9056 16.8512 10.0002 16.8512 9.65742 17.207C9.52284 17.3479 9.41979 17.5196 9.35601 17.7091C9.29222 17.8987 9.26936 18.1013 9.28912 18.3016C9.3066 18.5086 9.36828 18.7086 9.46938 18.886C9.57049 19.0635 9.70832 19.2137 9.87227 19.3252C11.4475 20.1287 13.1302 20.6642 14.8598 20.9125Z" stroke="#B0B0B0" stroke-linecap="round" stroke-linejoin="round"/>
</svg>
