<svg width="20" height="20" viewBox="0 0 20 20" fill="none" xmlns="http://www.w3.org/2000/svg">
<path d="M19.8809 0.118527C19.8433 0.0809503 19.7988 0.0511416 19.7497 0.0308042C19.7006 0.0104669 19.648 -4.81952e-07 19.5949 0H19.5936L13.1408 0.0203471C13.0814 0.0205307 13.0228 0.0337845 12.9691 0.0591681C12.9154 0.0845516 12.868 0.121443 12.8301 0.167221L6.46825 7.86847C5.90971 8.54459 4.89038 8.59302 4.27025 7.9729V7.9729C4.04243 7.74566 3.73379 7.61806 3.41202 7.61806C3.09025 7.61806 2.78161 7.74566 2.55379 7.9729L1.27073 9.25605C1.158 9.36874 1.06858 9.50253 1.00756 9.64979C0.946553 9.79705 0.915151 9.95488 0.915151 10.1143C0.915151 10.2737 0.946553 10.4315 1.00756 10.5788C1.06858 10.726 1.158 10.8598 1.27073 10.9725L3.38327 13.0851C3.45903 13.161 3.50158 13.2639 3.50158 13.3712C3.50158 13.4784 3.45903 13.5813 3.38327 13.6572L0.354913 16.6856C0.127638 16.9134 0 17.222 0 17.5438C0 17.8656 0.127638 18.1743 0.354913 18.4021L1.59747 19.6445C1.71017 19.7572 1.84396 19.8466 1.9912 19.9076C2.13845 19.9686 2.29627 20 2.45565 20C2.61503 20 2.77285 19.9686 2.9201 19.9076C3.06735 19.8466 3.20114 19.7572 3.31383 19.6445L6.34219 16.6162C6.37976 16.5786 6.42436 16.5488 6.47345 16.5284C6.52254 16.5081 6.57515 16.4976 6.62829 16.4976C6.68142 16.4976 6.73403 16.5081 6.78312 16.5284C6.83221 16.5488 6.87681 16.5786 6.91438 16.6162L9.02692 18.7288C9.25474 18.956 9.56338 19.0836 9.88515 19.0836C10.2069 19.0836 10.5156 18.956 10.7434 18.7288L12.0264 17.4457C12.1392 17.333 12.2286 17.1992 12.2896 17.0519C12.3506 16.9046 12.382 16.7468 12.382 16.5874C12.382 16.428 12.3506 16.2702 12.2896 16.1229C12.2286 15.9757 12.1392 15.8419 12.0264 15.7292V15.7292C11.4063 15.1091 11.4548 14.0898 12.1309 13.5313L19.8322 7.16929C19.878 7.13146 19.9149 7.08401 19.9403 7.03033C19.9656 6.97664 19.9789 6.91803 19.9791 6.85865L19.9994 0.405856C19.9996 0.352512 19.9892 0.299661 19.9689 0.250348C19.9485 0.201035 19.9186 0.156234 19.8809 0.118527ZM11.5729 16.5874C11.573 16.6406 11.5626 16.6932 11.5423 16.7423C11.5219 16.7914 11.492 16.836 11.4543 16.8735L10.1713 18.1566C10.0953 18.2324 9.99243 18.2749 9.88515 18.2749C9.77787 18.2749 9.67497 18.2324 9.59901 18.1566L7.48647 16.044C7.37378 15.9313 7.23999 15.8419 7.09274 15.7809C6.94549 15.7199 6.78767 15.6885 6.62829 15.6885C6.4689 15.6885 6.31108 15.7199 6.16383 15.7809C6.01658 15.8419 5.88279 15.9313 5.7701 16.044L2.74175 19.0723C2.70418 19.1099 2.65958 19.1397 2.61049 19.1601C2.5614 19.1804 2.50879 19.1909 2.45565 19.1909C2.40252 19.1909 2.3499 19.1804 2.30081 19.1601C2.25173 19.1397 2.20712 19.1099 2.16956 19.0723L0.927002 17.8299C0.851244 17.7539 0.808698 17.6511 0.808698 17.5438C0.808698 17.4365 0.851244 17.3337 0.927002 17.2577L3.95536 14.2294C4.18264 14.0016 4.31027 13.693 4.31027 13.3712C4.31027 13.0494 4.18264 12.7408 3.95536 12.513L1.84282 10.4003C1.80524 10.3628 1.77543 10.3182 1.7551 10.2691C1.73476 10.22 1.72429 10.1674 1.72429 10.1143C1.72429 10.0612 1.73476 10.0085 1.7551 9.95946C1.77543 9.91038 1.80524 9.86579 1.84282 9.82823L3.12587 8.54508C3.20184 8.46934 3.30474 8.4268 3.41201 8.4268C3.51929 8.4268 3.62219 8.46934 3.69816 8.54508L11.4543 16.3014C11.492 16.3388 11.5219 16.3834 11.5423 16.4325C11.5626 16.4816 11.573 16.5343 11.5729 16.5874ZM19.1764 4.80459C19.1727 5.9841 18.6446 7.10085 17.7352 7.85206L11.2616 13.1998C10.7137 13.6524 9.91155 13.6143 9.40906 13.1118V13.1118C8.87078 12.5735 8.87078 11.7008 9.40907 11.1625L14.2169 6.35461C14.2546 6.31707 14.2844 6.27247 14.3048 6.22337C14.3253 6.17426 14.3358 6.12162 14.3358 6.06844C14.3359 6.01527 14.3254 5.96261 14.3051 5.91348C14.2847 5.86434 14.2549 5.8197 14.2173 5.7821C14.1797 5.7445 14.1351 5.71468 14.086 5.69435C14.0368 5.67402 13.9842 5.66358 13.931 5.66362C13.8778 5.66366 13.8252 5.67418 13.7761 5.69458C13.727 5.71499 13.6824 5.74487 13.6448 5.78252L8.83698 10.5903C8.29868 11.1286 7.42594 11.1286 6.88765 10.5903V10.5903C6.38517 10.0878 6.34706 9.28568 6.79965 8.73781L12.1474 2.26425C12.8986 1.35488 14.0153 0.826748 15.1948 0.823028V0.823028C17.3967 0.816083 19.1834 2.60276 19.1764 4.80459V4.80459Z" fill="#B0B0B0"/>
</svg>
