<svg width="21" height="22" viewBox="0 0 21 22" fill="none" xmlns="http://www.w3.org/2000/svg">
<path d="M8.15188 15.5378C8.81015 15.5378 9.34379 15.0319 9.34379 14.4077C9.34379 13.7836 8.81015 13.2776 8.15188 13.2776C7.4936 13.2776 6.95996 13.7836 6.95996 14.4077C6.95996 15.0319 7.4936 15.5378 8.15188 15.5378Z" stroke="#B0B0B0" stroke-linecap="round" stroke-linejoin="round"/>
<path d="M8.15186 14.4077V16.6678" stroke="#B0B0B0" stroke-linecap="round" stroke-linejoin="round"/>
<path d="M17.6875 7.78472V5.0271" stroke="#B0B0B0" stroke-linecap="round" stroke-linejoin="round"/>
<path d="M17.6875 7.78467L15.9314 9.8492" stroke="#B0B0B0" stroke-linecap="round" stroke-linejoin="round"/>
<path d="M15.1448 6.27026L17.6877 7.78467" stroke="#B0B0B0" stroke-linecap="round" stroke-linejoin="round"/>
<path d="M17.6875 7.78467L19.4436 9.8492" stroke="#B0B0B0" stroke-linecap="round" stroke-linejoin="round"/>
<path d="M20.2304 6.27026L17.6875 7.78467" stroke="#B0B0B0" stroke-linecap="round" stroke-linejoin="round"/>
<path d="M15.3039 12.9473V19.493C15.3039 20.3279 14.5951 21 13.7145 21H2.58937C1.70882 21 1 20.3279 1 19.493V11.205C1 10.3701 1.70882 9.698 2.58937 9.698H11.877" stroke="#B0B0B0" stroke-linecap="round" stroke-linejoin="round"/>
<path d="M3.39868 5.52079C3.39868 3.02407 5.53342 1 8.16664 1C10.7999 1 12.9346 3.02407 12.9346 5.52079" stroke="#B0B0B0" stroke-linecap="round" stroke-linejoin="round"/>
<path d="M12.9343 5.521V7.02755" stroke="#B0B0B0" stroke-linecap="round" stroke-linejoin="round"/>
<path d="M3.39844 5.14404V7.02716" stroke="#B0B0B0" stroke-linecap="round" stroke-linejoin="round"/>
</svg>
