<svg width="20" height="20" viewBox="0 0 20 20" fill="none" xmlns="http://www.w3.org/2000/svg">
<path d="M9 15.0001C3.96668 15.0001 0 13.0001 0 10.4667V8.00009C0 7.81599 0.149241 7.66675 0.33334 7.66675V7.66675C0.517438 7.66675 0.663791 7.81721 0.69802 7.99809C1.07489 9.98968 4.79787 11.6667 9 11.6667C11.1667 11.6667 13.2333 11.2334 14.8 10.5001V10.5001C14.8443 10.4779 14.8909 10.4606 14.9388 10.4479C15.9419 10.1814 16.8163 9.78917 17.5 9.33339V9.33339C17.7322 9.18829 18.0333 9.3552 18.0333 9.62898V10.5001C18 13.0001 14.0333 15.0001 9 15.0001ZM1.41942 10.186C1.14722 9.96591 0.66668 10.15 0.66668 10.5001V10.5001C0.66668 12.5667 4.46668 14.3334 9 14.3334C13.5333 14.3334 17.3333 12.5667 17.3333 10.4667V10.4667C17.3333 10.3483 17.2047 10.2737 17.0999 10.329C16.5455 10.6214 15.9012 10.8675 15.1861 11.0673C15.1068 11.0894 15.0295 11.1181 14.9548 11.1528C13.3036 11.9191 11.1837 12.3333 8.99996 12.3333C5.81774 12.3334 3.01619 11.4769 1.41942 10.186Z" fill="#B0B0B0"/>
<path d="M11 17.3333C6.50002 17.3333 2.6667 15.6 2.0667 13.2666L2.06296 13.2523C1.99118 12.9772 2.28956 12.7537 2.53338 12.9V12.9C4.1667 13.8 6.50006 14.3333 9.00006 14.3333C13.5334 14.3333 17.3334 12.5666 17.3334 10.4666V10.0667C17.3334 9.81 17.6069 9.64589 17.8334 9.76668V9.76668C19.2667 10.5333 20 11.5333 20 12.6667C20 15.2333 15.9667 17.3333 11 17.3333ZM9.00002 15C7.24233 15 6.68893 16.1877 8.42457 16.4652C9.2426 16.5961 10.1099 16.6666 11 16.6666C15.4333 16.6666 19.3333 14.8 19.3333 12.6666V12.6666C19.3333 11.5675 17.6277 12.0644 16.7953 12.7822C15.2486 14.1162 12.3646 15 9.00002 15V15Z" fill="#B0B0B0"/>
<path d="M10.6667 9C5.70007 9 1.66675 6.9 1.66675 4.33332C1.66675 1.86668 5.53339 0 10.6667 0C15.8001 0 19.6667 1.86668 19.6667 4.33332C19.6667 6.9 15.6334 9 10.6667 9ZM10.6667 0.66668C6.00007 0.66668 2.33343 2.26668 2.33343 4.33336C2.33343 6.46668 6.23343 8.33336 10.6667 8.33336C15.1001 8.33336 19.0001 6.46668 19.0001 4.33332C19.0001 2.26668 15.3334 0.66668 10.6667 0.66668Z" fill="#B0B0B0"/>
<path d="M10.6667 7.66657C6.13336 7.66657 3 5.89989 3 4.33325C3 2.86657 5.86668 1.33325 10.6667 1.33325C15.4667 1.33325 18.3334 2.86657 18.3334 4.33325C18.3333 5.89989 15.2 7.66657 10.6667 7.66657ZM10.6667 1.99989C6 1.99989 3.66668 3.49989 3.66668 4.33321C3.66668 5.23321 6.13336 6.99989 10.6667 6.99989C15.2 6.99989 17.6667 5.23321 17.6667 4.33321C17.6667 3.49989 15.3333 1.99989 10.6667 1.99989Z" fill="#B0B0B0"/>
<path d="M11 20.0001C5.96668 20.0001 2 18.0001 2 15.4667V13.0001C2 12.816 2.14924 12.6667 2.33334 12.6667V12.6667C2.51744 12.6667 2.66379 12.8172 2.69802 12.9981C3.07489 14.9897 6.79787 16.6667 11 16.6667C15.2021 16.6667 18.9251 14.9897 19.302 12.9981C19.3362 12.8172 19.4826 12.6667 19.6667 12.6667V12.6667C19.8508 12.6667 20 12.816 20 13.0001V15.4667C20 18.0001 16.0333 20.0001 11 20.0001ZM3.41942 15.186C3.14722 14.9659 2.66668 15.15 2.66668 15.5001V15.5001C2.66668 17.5667 6.46668 19.3334 11 19.3334C15.5333 19.3334 19.3333 17.5667 19.3333 15.4667V15.4667C19.3333 15.1203 18.8553 14.9395 18.588 15.1598C16.9925 16.4742 14.1872 17.3334 11 17.3334C7.81775 17.3334 5.01619 16.4769 3.41942 15.186Z" fill="#B0B0B0"/>
<path d="M12 19.9668C11.8 19.9668 11.6667 19.8335 11.6667 19.6335V16.9668C11.6667 16.7668 11.8 16.6335 12 16.6335C12.2 16.6335 12.3333 16.7668 12.3333 16.9668V19.6335C12.3333 19.8334 12.2 19.9668 12 19.9668ZM10 19.9668C9.80001 19.9668 9.66669 19.8335 9.66669 19.6335V16.9668C9.66669 16.7668 9.80001 16.6335 10 16.6335C10.2 16.6335 10.3333 16.7668 10.3333 16.9668V19.6335C10.3333 19.8334 10.2 19.9668 10 19.9668ZM14 19.7334C13.8 19.7334 13.6667 19.6001 13.6667 19.4001V16.7001C13.6667 16.5001 13.8 16.3668 14 16.3668C14.2 16.3668 14.3333 16.5001 14.3333 16.7001V19.4001C14.3333 19.6001 14.2 19.7334 14 19.7334ZM8.00001 19.7334C7.80001 19.7334 7.66669 19.6001 7.66669 19.4001V16.7001C7.66669 16.5001 7.80001 16.3668 8.00001 16.3668C8.20001 16.3668 8.33333 16.5001 8.33333 16.7001V19.4001C8.33333 19.6001 8.20001 19.7334 8.00001 19.7334ZM15.6667 19.3334C15.4667 19.3334 15.3334 19.2001 15.3334 19.0001V16.3001C15.3334 16.1001 15.4667 15.9668 15.6667 15.9668C15.8667 15.9668 16 16.1001 16 16.3001V19.0001C16 19.2001 15.8667 19.3334 15.6667 19.3334ZM6.33333 19.3334C6.13333 19.3334 6.00001 19.2001 6.00001 19.0001V16.3001C6.00001 16.1001 6.13333 15.9668 6.33333 15.9668C6.53333 15.9668 6.66666 16.1001 6.66666 16.3001V19.0001C6.66669 19.2001 6.53333 19.3334 6.33333 19.3334ZM17 18.8334C16.8 18.8334 16.6667 18.7001 16.6667 18.5001V15.7668C16.6667 15.5668 16.8 15.4335 17 15.4335C17.2 15.4335 17.3333 15.5668 17.3333 15.7668V18.5001C17.3333 18.7001 17.2 18.8334 17 18.8334ZM5.00001 18.8334C4.80001 18.8334 4.66669 18.7001 4.66669 18.5001V15.7668C4.66669 15.5668 4.80001 15.4335 5.00001 15.4335C5.20001 15.4335 5.33334 15.5668 5.33334 15.7668V18.5001C5.33334 18.7001 5.20001 18.8334 5.00001 18.8334ZM18.3333 18.0334C18.1333 18.0334 18 17.9001 18 17.7001V14.9334C18 14.7334 18.1333 14.6001 18.3333 14.6001C18.5333 14.6001 18.6667 14.7334 18.6667 14.9334V17.7001C18.6667 17.9001 18.5333 18.0334 18.3333 18.0334ZM3.66669 18.0334C3.46669 18.0334 3.33337 17.9001 3.33337 17.7001V14.9334C3.33337 14.7334 3.46669 14.6001 3.66669 14.6001C3.86669 14.6001 4.00001 14.7334 4.00001 14.9334V17.7001C4.00001 17.9001 3.86669 18.0334 3.66669 18.0334Z" fill="#B0B0B0"/>
<path d="M10.6666 11.6666C5.63331 11.6666 1.66663 9.66661 1.66663 7.13329V4.66663C1.66663 4.48253 1.81587 4.33329 1.99997 4.33329V4.33329C2.18406 4.33329 2.33042 4.48375 2.36465 4.66464C2.74152 6.65622 6.4645 8.33329 10.6666 8.33329C14.8688 8.33329 18.5917 6.65622 18.9686 4.6646C19.0028 4.48371 19.1492 4.33325 19.3333 4.33325V4.33325C19.5174 4.33325 19.6666 4.48249 19.6666 4.66659V7.13325C19.6666 9.66661 15.6999 11.6666 10.6666 11.6666ZM3.08602 6.8525C2.81381 6.63244 2.33327 6.81658 2.33327 7.16661V7.16661C2.33327 9.23329 6.13327 10.9999 10.6666 10.9999C15.1999 10.9999 18.9999 9.23325 18.9999 7.13325V7.13325C18.9999 6.78684 18.5219 6.60606 18.2546 6.82633C16.6591 8.14078 13.8538 8.99993 10.6666 8.99993C7.4844 8.99993 4.68282 8.14342 3.08602 6.8525Z" fill="#B0B0B0"/>
<path d="M10 14.9666C9.80001 14.9666 9.66669 14.8333 9.66669 14.6333V11.9666C9.66669 11.7666 9.80001 11.6333 10 11.6333C10.2 11.6333 10.3333 11.7666 10.3333 11.9666V14.6333C10.3333 14.8332 10.2 14.9666 10 14.9666ZM8.00001 14.9666C7.80001 14.9666 7.66669 14.8333 7.66669 14.6333V11.9666C7.66669 11.7666 7.80001 11.6333 8.00001 11.6333C8.20001 11.6333 8.33333 11.7666 8.33333 11.9666V14.6333C8.33333 14.8332 8.20001 14.9666 8.00001 14.9666ZM12 14.7332C11.8 14.7332 11.6667 14.5999 11.6667 14.3999V11.6999V11.6999C11.6667 11.6482 11.6177 11.6098 11.5675 11.5971C11.4398 11.5649 11.3334 11.4264 11.3334 11.2666V8.59992C11.3334 8.39992 11.4667 8.2666 11.6667 8.2666C11.8667 8.2666 12 8.39992 12 8.59992V11.2666V11.2666C12 11.3218 12.0456 11.3649 12.0991 11.3786C12.2428 11.4156 12.3333 11.5351 12.3333 11.6999V14.3999C12.3333 14.5999 12.2 14.7332 12 14.7332ZM6.00001 14.7332C5.80001 14.7332 5.66669 14.5999 5.66669 14.3999V11.6999C5.66669 11.4999 5.80001 11.3666 6.00001 11.3666C6.20001 11.3666 6.33333 11.4999 6.33333 11.6999V14.3999C6.33333 14.5999 6.20001 14.7332 6.00001 14.7332ZM13.6667 14.3332C13.4667 14.3332 13.3334 14.1999 13.3334 13.9999V11.2999C13.3334 11.2991 13.3334 11.2982 13.3334 11.2974C13.3334 11.2292 13.3334 11.168 13.3334 11.0999V11.0999V8.39992C13.3334 8.19992 13.4667 8.0666 13.6667 8.0666C13.8667 8.0666 14 8.19992 14 8.39992V11.0999C14 11.1008 14 11.1016 14 11.1025C14 11.1706 14 11.2318 14 11.2999V11.2999V13.9999C14 14.1999 13.8667 14.3332 13.6667 14.3332ZM4.33333 14.3332C4.13333 14.3332 4.00001 14.1999 4.00001 13.9999V11.2999C4.00001 11.0999 4.13333 10.9666 4.33333 10.9666C4.53333 10.9666 4.66666 11.0999 4.66666 11.2999V13.9999C4.66669 14.1999 4.53333 14.3332 4.33333 14.3332ZM15 13.8332C14.8 13.8332 14.6667 13.6999 14.6667 13.4999V10.7666V10.7666C14.6667 10.4735 15 10.1957 15 9.90262V7.9666C15 7.7666 15.1333 7.63328 15.3333 7.63328C15.5333 7.63328 15.6667 7.7666 15.6667 7.9666V10.6666V10.6666C15.6667 10.9597 15.3333 11.2375 15.3333 11.5306V13.4999C15.3333 13.6999 15.2 13.8332 15 13.8332ZM3.00001 13.8332C2.80001 13.8332 2.66669 13.6999 2.66669 13.4999V10.7666C2.66669 10.5666 2.80001 10.4333 3.00001 10.4333C3.20001 10.4333 3.33334 10.5666 3.33334 10.7666V13.4999C3.33334 13.6999 3.20001 13.8332 3.00001 13.8332ZM16.3333 13.0332C16.1333 13.0332 16 12.8999 16 12.6999V10.3332V10.3332C16 10.0402 16.3333 9.76234 16.3333 9.46926V7.43324C16.3333 7.23324 16.4667 7.09992 16.6667 7.09992C16.8667 7.09992 17 7.23324 17 7.43324V10.1666V10.1666C17 10.4596 16.6667 10.7375 16.6667 11.0305V12.6999C16.6667 12.8999 16.5333 13.0332 16.3333 13.0332ZM1.66669 13.0332C1.46669 13.0332 1.33337 12.8999 1.33337 12.6999V9.93324C1.33337 9.73324 1.46669 9.59992 1.66669 9.59992C1.86669 9.59992 2.00001 9.73324 2.00001 9.93324V12.6999C2.00001 12.8999 1.86669 13.0332 1.66669 13.0332ZM9.66669 11.6332C9.46669 11.6332 9.33337 11.4999 9.33337 11.2999V8.63324C9.33337 8.43324 9.46669 8.29992 9.66669 8.29992C9.86669 8.29992 10 8.43324 10 8.63324V11.2999C10 11.4999 9.86669 11.6332 9.66669 11.6332ZM7.66669 11.3999C7.46669 11.3999 7.33337 11.2666 7.33337 11.0666V8.3666C7.33337 8.1666 7.46669 8.03328 7.66669 8.03328C7.86669 8.03328 8.00001 8.1666 8.00001 8.3666V11.0666C8.00001 11.2666 7.86669 11.3999 7.66669 11.3999ZM6.00001 10.9999C5.80001 10.9999 5.66669 10.8666 5.66669 10.6666V7.9666C5.66669 7.7666 5.80001 7.63328 6.00001 7.63328C6.20001 7.63328 6.33333 7.7666 6.33333 7.9666V10.6666C6.33333 10.8666 6.20001 10.9999 6.00001 10.9999ZM4.66669 10.4999C4.46669 10.4999 4.33337 10.3666 4.33337 10.1666V7.43328C4.33337 7.23328 4.46669 7.09996 4.66669 7.09996C4.86669 7.09996 5.00001 7.23328 5.00001 7.43328V10.1666C5.00001 10.3666 4.86669 10.4999 4.66669 10.4999ZM18 9.69992C17.8 9.69992 17.6667 9.5666 17.6667 9.3666V6.59992C17.6667 6.39992 17.8 6.2666 18 6.2666C18.2 6.2666 18.3333 6.39992 18.3333 6.59992V9.3666C18.3333 9.5666 18.2 9.69992 18 9.69992ZM3.33334 9.69992C3.13334 9.69992 3.00001 9.5666 3.00001 9.3666V6.59992C3.00001 6.39992 3.13334 6.2666 3.33334 6.2666C3.53334 6.2666 3.66666 6.39992 3.66666 6.59992V9.3666C3.66669 9.5666 3.53334 9.69992 3.33334 9.69992Z" fill="#B0B0B0"/>
<path d="M9 12.3334C4.03332 12.3334 0 10.2334 0 7.66675C0 6.66675 0.63332 5.73343 1.83332 4.96675V4.96675C2.05337 4.83472 2.33332 4.99323 2.33332 5.24984V7.16675C2.33332 9.23343 6.13332 11.0001 10.6666 11.0001C12.0087 11.0001 13.3508 10.8326 14.5396 10.5488C14.7256 10.5044 14.9171 10.6038 14.9832 10.7832V10.7832C15.0494 10.9629 14.9684 11.164 14.7931 11.2408C13.1717 11.9508 11.13 12.3334 9 12.3334ZM1.66668 7.13343C1.66668 6.63912 1.09926 6.39369 0.874592 6.834C0.745184 7.08761 0.66668 7.36596 0.66668 7.66675C0.66668 9.80007 4.56668 11.6667 9 11.6667V11.6667C9.08244 11.6667 9.08226 11.5884 9.00013 11.5812C4.76973 11.2098 1.66668 9.39324 1.66668 7.13343V7.13343Z" fill="#B0B0B0"/>
<path d="M11 16C8.55613 16 6.3479 15.4993 4.87349 14.6088C4.71234 14.5114 4.65555 14.3083 4.73201 14.1362V14.1362C4.80963 13.9616 5.00225 13.8695 5.18807 13.9142C6.37323 14.1987 7.6866 14.3666 8.99998 14.3666C12.8667 14.3666 16.3 13.1 17.1333 11.3333V11.3333C17.2211 11.1577 17.4444 11.1011 17.6053 11.2137L17.6333 11.2333C18.3 11.7 18.6666 12.2333 18.6666 12.7333C18.6667 14.2333 15.5333 16 11 16ZM8.99998 15C8.84403 15 8.82055 15.1801 8.97506 15.2012C9.58085 15.2839 10.2558 15.3333 11 15.3333C15.5333 15.3333 18 13.5666 18 12.6666V12.6666C18 12.1955 17.299 12.2899 16.9585 12.6155C15.4417 14.0661 12.4228 15 8.99998 15V15Z" fill="#B0B0B0"/>
</svg>
