<svg width="186" height="42" viewBox="0 0 186 42" fill="none" xmlns="http://www.w3.org/2000/svg">
<g id="runes">
<g id="runes_2">
<path id="Vector" d="M1 9.6398V1H9.6398M9.6398 41H1V32.3602M32.3612 41H41V32.3602M32.3612 1H41V9.6398" stroke="#B28E4C" stroke-opacity="0.2" stroke-miterlimit="20" stroke-linecap="round"/>
<g id="lock">
<path id="Vector_2" d="M19.7283 26.8064C20.7157 26.8064 21.5162 26.0474 21.5162 25.1112C21.5162 24.175 20.7157 23.416 19.7283 23.416C18.7409 23.416 17.9404 24.175 17.9404 25.1112C17.9404 26.0474 18.7409 26.8064 19.7283 26.8064Z" stroke="#B0B0B0" stroke-linecap="round" stroke-linejoin="round"/>
<path id="Vector_3" d="M19.7275 25.1113V28.5015" stroke="#B0B0B0" stroke-linecap="round" stroke-linejoin="round"/>
<g id="Group">
<g id="Group_2">
<path id="Vector_4" d="M34.0322 15.1765V11.04" stroke="#B0B0B0" stroke-linecap="round" stroke-linejoin="round"/>
<path id="Vector_5" d="M34.0317 15.1768L31.3975 18.2736" stroke="#B0B0B0" stroke-linecap="round" stroke-linejoin="round"/>
<path id="Vector_6" d="M30.2178 12.9053L34.0321 15.1769" stroke="#B0B0B0" stroke-linecap="round" stroke-linejoin="round"/>
<path id="Vector_7" d="M34.0322 15.1768L36.6664 18.2736" stroke="#B0B0B0" stroke-linecap="round" stroke-linejoin="round"/>
<path id="Vector_8" d="M37.8466 12.9053L34.0322 15.1769" stroke="#B0B0B0" stroke-linecap="round" stroke-linejoin="round"/>
</g>
<g id="Group_3">
<path id="Vector_9" d="M30.4558 22.9208V32.7394C30.4558 33.9917 29.3926 34.9998 28.0718 34.9998H11.3841C10.0632 34.9998 9 33.9917 9 32.7394V20.3073C9 19.055 10.0632 18.0469 11.3841 18.0469H25.3154" stroke="#B0B0B0" stroke-linecap="round" stroke-linejoin="round"/>
<g id="Group_4">
<path id="Vector_10" d="M12.5986 11.7812C12.5986 8.03611 15.8007 5 19.7506 5C23.7004 5 26.9025 8.03611 26.9025 11.7812" stroke="#B0B0B0" stroke-linecap="round" stroke-linejoin="round"/>
<path id="Vector_11" d="M26.9023 11.7812V14.0411" stroke="#B0B0B0" stroke-linecap="round" stroke-linejoin="round"/>
<path id="Vector_12" d="M12.5986 11.2158V14.0405" stroke="#B0B0B0" stroke-linecap="round" stroke-linejoin="round"/>
</g>
</g>
</g>
</g>
</g>
<g id="runes_3">
<path id="Vector_13" d="M49 9.6398V1H57.6398M57.6398 41H49V32.3602M80.3612 41H89V32.3602M80.3612 1H89V9.6398" stroke="#B28E4C" stroke-opacity="0.2" stroke-miterlimit="20" stroke-linecap="round"/>
<g id="lock_2">
<path id="Vector_14" d="M67.7283 26.8064C68.7157 26.8064 69.5162 26.0474 69.5162 25.1112C69.5162 24.175 68.7157 23.416 67.7283 23.416C66.7409 23.416 65.9404 24.175 65.9404 25.1112C65.9404 26.0474 66.7409 26.8064 67.7283 26.8064Z" stroke="#B0B0B0" stroke-linecap="round" stroke-linejoin="round"/>
<path id="Vector_15" d="M67.7275 25.1113V28.5015" stroke="#B0B0B0" stroke-linecap="round" stroke-linejoin="round"/>
<g id="Group_5">
<g id="Group_6">
<path id="Vector_16" d="M82.0322 15.1765V11.04" stroke="#B0B0B0" stroke-linecap="round" stroke-linejoin="round"/>
<path id="Vector_17" d="M82.0317 15.1768L79.3975 18.2736" stroke="#B0B0B0" stroke-linecap="round" stroke-linejoin="round"/>
<path id="Vector_18" d="M78.2178 12.9053L82.0321 15.1769" stroke="#B0B0B0" stroke-linecap="round" stroke-linejoin="round"/>
<path id="Vector_19" d="M82.0322 15.1768L84.6664 18.2736" stroke="#B0B0B0" stroke-linecap="round" stroke-linejoin="round"/>
<path id="Vector_20" d="M85.8466 12.9053L82.0322 15.1769" stroke="#B0B0B0" stroke-linecap="round" stroke-linejoin="round"/>
</g>
<g id="Group_7">
<path id="Vector_21" d="M78.4558 22.9208V32.7394C78.4558 33.9917 77.3926 34.9998 76.0718 34.9998H59.3841C58.0632 34.9998 57 33.9917 57 32.7394V20.3073C57 19.055 58.0632 18.0469 59.3841 18.0469H73.3154" stroke="#B0B0B0" stroke-linecap="round" stroke-linejoin="round"/>
<g id="Group_8">
<path id="Vector_22" d="M60.5986 11.7812C60.5986 8.03611 63.8007 5 67.7506 5C71.7004 5 74.9025 8.03611 74.9025 11.7812" stroke="#B0B0B0" stroke-linecap="round" stroke-linejoin="round"/>
<path id="Vector_23" d="M74.9023 11.7812V14.0411" stroke="#B0B0B0" stroke-linecap="round" stroke-linejoin="round"/>
<path id="Vector_24" d="M60.5986 11.2158V14.0405" stroke="#B0B0B0" stroke-linecap="round" stroke-linejoin="round"/>
</g>
</g>
</g>
</g>
</g>
<g id="runes_4">
<path id="Vector_25" d="M97 9.6398V1H105.64M105.64 41H97V32.3602M128.361 41H137V32.3602M128.361 1H137V9.6398" stroke="#B28E4C" stroke-opacity="0.2" stroke-miterlimit="20" stroke-linecap="round"/>
<g id="lock_3">
<path id="Vector_26" d="M115.728 26.8064C116.716 26.8064 117.516 26.0474 117.516 25.1112C117.516 24.175 116.716 23.416 115.728 23.416C114.741 23.416 113.94 24.175 113.94 25.1112C113.94 26.0474 114.741 26.8064 115.728 26.8064Z" stroke="#B0B0B0" stroke-linecap="round" stroke-linejoin="round"/>
<path id="Vector_27" d="M115.728 25.1113V28.5015" stroke="#B0B0B0" stroke-linecap="round" stroke-linejoin="round"/>
<g id="Group_9">
<g id="Group_10">
<path id="Vector_28" d="M130.032 15.1765V11.04" stroke="#B0B0B0" stroke-linecap="round" stroke-linejoin="round"/>
<path id="Vector_29" d="M130.032 15.1768L127.397 18.2736" stroke="#B0B0B0" stroke-linecap="round" stroke-linejoin="round"/>
<path id="Vector_30" d="M126.218 12.9053L130.032 15.1769" stroke="#B0B0B0" stroke-linecap="round" stroke-linejoin="round"/>
<path id="Vector_31" d="M130.032 15.1768L132.666 18.2736" stroke="#B0B0B0" stroke-linecap="round" stroke-linejoin="round"/>
<path id="Vector_32" d="M133.847 12.9053L130.032 15.1769" stroke="#B0B0B0" stroke-linecap="round" stroke-linejoin="round"/>
</g>
<g id="Group_11">
<path id="Vector_33" d="M126.456 22.9208V32.7394C126.456 33.9917 125.393 34.9998 124.072 34.9998H107.384C106.063 34.9998 105 33.9917 105 32.7394V20.3073C105 19.055 106.063 18.0469 107.384 18.0469H121.315" stroke="#B0B0B0" stroke-linecap="round" stroke-linejoin="round"/>
<g id="Group_12">
<path id="Vector_34" d="M108.599 11.7812C108.599 8.03611 111.801 5 115.751 5C119.7 5 122.903 8.03611 122.903 11.7812" stroke="#B0B0B0" stroke-linecap="round" stroke-linejoin="round"/>
<path id="Vector_35" d="M122.902 11.7812V14.0411" stroke="#B0B0B0" stroke-linecap="round" stroke-linejoin="round"/>
<path id="Vector_36" d="M108.599 11.2158V14.0405" stroke="#B0B0B0" stroke-linecap="round" stroke-linejoin="round"/>
</g>
</g>
</g>
</g>
</g>
<g id="runes_5">
<path id="Vector_37" d="M145 9.6398V1H153.64M153.64 41H145V32.3602M176.361 41H185V32.3602M176.361 1H185V9.6398" stroke="#B28E4C" stroke-opacity="0.2" stroke-miterlimit="20" stroke-linecap="round"/>
<g id="lock_4">
<path id="Vector_38" d="M163.728 26.8064C164.716 26.8064 165.516 26.0474 165.516 25.1112C165.516 24.175 164.716 23.416 163.728 23.416C162.741 23.416 161.94 24.175 161.94 25.1112C161.94 26.0474 162.741 26.8064 163.728 26.8064Z" stroke="#B0B0B0" stroke-linecap="round" stroke-linejoin="round"/>
<path id="Vector_39" d="M163.728 25.1113V28.5015" stroke="#B0B0B0" stroke-linecap="round" stroke-linejoin="round"/>
<g id="Group_13">
<g id="Group_14">
<path id="Vector_40" d="M178.032 15.1765V11.04" stroke="#B0B0B0" stroke-linecap="round" stroke-linejoin="round"/>
<path id="Vector_41" d="M178.032 15.1768L175.397 18.2736" stroke="#B0B0B0" stroke-linecap="round" stroke-linejoin="round"/>
<path id="Vector_42" d="M174.218 12.9053L178.032 15.1769" stroke="#B0B0B0" stroke-linecap="round" stroke-linejoin="round"/>
<path id="Vector_43" d="M178.032 15.1768L180.666 18.2736" stroke="#B0B0B0" stroke-linecap="round" stroke-linejoin="round"/>
<path id="Vector_44" d="M181.847 12.9053L178.032 15.1769" stroke="#B0B0B0" stroke-linecap="round" stroke-linejoin="round"/>
</g>
<g id="Group_15">
<path id="Vector_45" d="M174.456 22.9208V32.7394C174.456 33.9917 173.393 34.9998 172.072 34.9998H155.384C154.063 34.9998 153 33.9917 153 32.7394V20.3073C153 19.055 154.063 18.0469 155.384 18.0469H169.315" stroke="#B0B0B0" stroke-linecap="round" stroke-linejoin="round"/>
<g id="Group_16">
<path id="Vector_46" d="M156.599 11.7812C156.599 8.03611 159.801 5 163.751 5C167.7 5 170.903 8.03611 170.903 11.7812" stroke="#B0B0B0" stroke-linecap="round" stroke-linejoin="round"/>
<path id="Vector_47" d="M170.902 11.7812V14.0411" stroke="#B0B0B0" stroke-linecap="round" stroke-linejoin="round"/>
<path id="Vector_48" d="M156.599 11.2158V14.0405" stroke="#B0B0B0" stroke-linecap="round" stroke-linejoin="round"/>
</g>
</g>
</g>
</g>
</g>
</g>
</svg>
