<svg width="84" height="28" viewBox="0 0 84 28" fill="none" xmlns="http://www.w3.org/2000/svg">
<path d="M18.6519 5.52963C19.8195 3.80835 23.8861 1.0604 26.9663 1L32.2206 15.7061C28.5969 16.6422 22.3259 19.209 18.6519 22.7723C14.9778 19.209 8.70689 16.6422 5.08322 15.7061L10.3375 1C13.4176 1.0604 17.4842 3.80835 18.6519 5.52963Z" stroke="#B0B0B0" stroke-linecap="round" stroke-linejoin="round"/>
<path d="M27.6404 2.8877L31.5561 4.11044L36.2258 17.2302C36.4552 17.8746 36.1614 18.5883 35.5448 18.8846L18.6518 27.0001L1.75866 18.8846C1.14209 18.5883 0.848306 17.8747 1.07768 17.2302L5.74739 4.11044L9.66303 2.8877" stroke="#B0B0B0" stroke-linecap="round" stroke-linejoin="round"/>
<path d="M56.81 11.232V7.2H57.608V17H56.81V12.002H52.372V17H51.574V7.2H52.372V11.232H56.81ZM63.8471 10.182C63.8471 10.182 63.8284 10.2987 63.7911 10.532C63.7631 10.7653 63.7491 11.0547 63.7491 11.4V16.944C63.7584 16.944 63.7024 16.9487 63.5811 16.958C63.4597 16.958 63.3011 16.9673 63.1051 16.986C62.9091 16.9953 62.6991 17.0047 62.4751 17.014C62.2604 17.0233 62.0504 17.0327 61.8451 17.042C61.6491 17.0513 61.4904 17.056 61.3691 17.056C61.0331 17.0653 60.7017 17.042 60.3751 16.986C60.0577 16.93 59.7637 16.818 59.4931 16.65C59.2317 16.482 59.0217 16.2347 58.8631 15.908C58.7137 15.5813 58.6391 15.1567 58.6391 14.634V12.044C58.6391 11.624 58.6951 11.2787 58.8071 11.008C58.9284 10.728 59.0871 10.5087 59.2831 10.35C59.4791 10.182 59.6984 10.0653 59.9411 10C60.1931 9.92533 60.4497 9.888 60.7111 9.888C60.9631 9.888 61.2197 9.916 61.4811 9.972C61.7517 10.0187 62.0177 10.0887 62.2791 10.182C62.5497 10.266 62.8064 10.3687 63.0491 10.49C63.0491 10.49 63.0631 10.42 63.0911 10.28C63.1284 10.14 63.1751 10.0093 63.2311 9.888L63.8471 10.182ZM59.4091 14.718C59.4091 15.0633 59.4697 15.362 59.5911 15.614C59.7217 15.8567 59.9131 16.0433 60.1651 16.174C60.4171 16.2953 60.7251 16.356 61.0891 16.356C61.3411 16.356 61.5791 16.3513 61.8031 16.342C62.0271 16.3327 62.2231 16.3233 62.3911 16.314C62.5684 16.3047 62.7084 16.2953 62.8111 16.286C62.9137 16.2767 62.9651 16.272 62.9651 16.272V11.19C62.7317 11.0873 62.5077 11.0033 62.2931 10.938C62.0784 10.8633 61.8731 10.8027 61.6771 10.756C61.4904 10.7093 61.3131 10.6767 61.1451 10.658C60.9771 10.63 60.8231 10.616 60.6831 10.616C60.5711 10.616 60.4404 10.63 60.2911 10.658C60.1511 10.686 60.0111 10.7467 59.8711 10.84C59.7404 10.9333 59.6284 11.078 59.5351 11.274C59.4511 11.47 59.4091 11.7407 59.4091 12.086V14.718ZM65.8948 19.926L67.3648 16.44L64.7048 10H65.6008L67.7848 15.474L70.0948 10H70.9768L66.7068 19.926H65.8948ZM75.6854 15.348C75.8441 15.5627 75.9981 15.7447 76.1474 15.894C76.2967 16.0433 76.4367 16.1553 76.5674 16.23C76.7074 16.2953 76.8381 16.328 76.9594 16.328H77.0154V17H76.9874C76.6607 17 76.3667 16.9253 76.1054 16.776C75.8441 16.6173 75.6107 16.4167 75.4054 16.174C75.2001 15.9313 75.0087 15.6887 74.8314 15.446L73.3754 13.444L72.6054 14.228V17H71.8074V9.832L72.6054 10.014V13.164L75.5034 9.986H76.5394L73.9074 12.856L75.6854 15.348ZM82.9877 10.182C82.9877 10.182 82.969 10.2987 82.9317 10.532C82.9037 10.7653 82.8897 11.0547 82.8897 11.4V16.944C82.899 16.944 82.843 16.9487 82.7217 16.958C82.6004 16.958 82.4417 16.9673 82.2457 16.986C82.0497 16.9953 81.8397 17.0047 81.6157 17.014C81.401 17.0233 81.191 17.0327 80.9857 17.042C80.7897 17.0513 80.631 17.056 80.5097 17.056C80.1737 17.0653 79.8424 17.042 79.5157 16.986C79.1984 16.93 78.9044 16.818 78.6337 16.65C78.3724 16.482 78.1624 16.2347 78.0037 15.908C77.8544 15.5813 77.7797 15.1567 77.7797 14.634V12.044C77.7797 11.624 77.8357 11.2787 77.9477 11.008C78.069 10.728 78.2277 10.5087 78.4237 10.35C78.6197 10.182 78.839 10.0653 79.0817 10C79.3337 9.92533 79.5904 9.888 79.8517 9.888C80.1037 9.888 80.3604 9.916 80.6217 9.972C80.8924 10.0187 81.1584 10.0887 81.4197 10.182C81.6904 10.266 81.947 10.3687 82.1897 10.49C82.1897 10.49 82.2037 10.42 82.2317 10.28C82.269 10.14 82.3157 10.0093 82.3717 9.888L82.9877 10.182ZM78.5497 14.718C78.5497 15.0633 78.6104 15.362 78.7317 15.614C78.8624 15.8567 79.0537 16.0433 79.3057 16.174C79.5577 16.2953 79.8657 16.356 80.2297 16.356C80.4817 16.356 80.7197 16.3513 80.9437 16.342C81.1677 16.3327 81.3637 16.3233 81.5317 16.314C81.709 16.3047 81.849 16.2953 81.9517 16.286C82.0544 16.2767 82.1057 16.272 82.1057 16.272V11.19C81.8724 11.0873 81.6484 11.0033 81.4337 10.938C81.219 10.8633 81.0137 10.8027 80.8177 10.756C80.631 10.7093 80.4537 10.6767 80.2857 10.658C80.1177 10.63 79.9637 10.616 79.8237 10.616C79.7117 10.616 79.581 10.63 79.4317 10.658C79.2917 10.686 79.1517 10.7467 79.0117 10.84C78.881 10.9333 78.769 11.078 78.6757 11.274C78.5917 11.47 78.5497 11.7407 78.5497 12.086V14.718Z" fill="#B0B0B0"/>
</svg>
