<svg width="95" height="36" viewBox="0 0 95 36" fill="none" xmlns="http://www.w3.org/2000/svg">
<path d="M12.4236 35.0001L23.0489 27.4107C23.3405 27.2024 23.5674 26.9161 23.7038 26.5847C23.8401 26.2533 23.8802 25.8902 23.8196 25.537L21.5633 12.3914C18.5351 11.961 15.4821 11.7289 12.4236 11.6965" stroke="#B0B0B0" stroke-linecap="round" stroke-linejoin="round"/>
<path d="M12.4236 9.66564C14.6319 9.626 16.8397 9.76888 19.0245 10.0928" stroke="#B0B0B0" stroke-linecap="round" stroke-linejoin="round"/>
<path d="M14.0016 9.6854C16.1921 8.54335 19.6662 4.24035 12.4236 3.27832" stroke="#B0B0B0" stroke-linecap="round" stroke-linejoin="round"/>
<path d="M15.3896 9.66577C17.9552 9.42525 19.6121 8.30281 19.6121 6.69932C19.6121 5.09583 17.1268 4.09937 15.3896 4.09937" stroke="#B0B0B0" stroke-linecap="round" stroke-linejoin="round"/>
<path d="M12.4235 35.0001L1.79823 27.4107C1.50664 27.2024 1.27966 26.9161 1.14334 26.5847C1.00701 26.2533 0.966855 25.8902 1.02748 25.537L3.28377 12.3914C6.31196 11.961 9.36504 11.7289 12.4235 11.6965" stroke="#B0B0B0" stroke-linecap="round" stroke-linejoin="round"/>
<path d="M12.4236 9.66564C10.2153 9.626 8.00753 9.76888 5.82275 10.0928" stroke="#B0B0B0" stroke-linecap="round" stroke-linejoin="round"/>
<path d="M10.8455 9.6854C8.6549 8.54335 5.18079 4.24035 12.4234 3.27832" stroke="#B0B0B0" stroke-linecap="round" stroke-linejoin="round"/>
<path d="M9.45716 9.66577C6.89156 9.42525 5.23471 8.30281 5.23471 6.69932C5.23471 5.09583 7.72002 4.09937 9.45716 4.09937" stroke="#B0B0B0" stroke-linecap="round" stroke-linejoin="round"/>
<path d="M12.4234 2.80392C12.9216 2.80392 13.3254 2.4001 13.3254 1.90196C13.3254 1.40382 12.9216 1 12.4234 1C11.9253 1 11.5215 1.40382 11.5215 1.90196C11.5215 2.4001 11.9253 2.80392 12.4234 2.80392Z" stroke="#B0B0B0" stroke-linecap="round" stroke-linejoin="round"/>
<path d="M12.4236 9.66542V2.80396" stroke="#B0B0B0" stroke-linecap="round" stroke-linejoin="round"/>
<path d="M12.4236 11.6965V35.0001" stroke="#B0B0B0" stroke-linecap="round" stroke-linejoin="round"/>
<path d="M34.372 11.2L37.312 19.796L40.308 11.2H41.092V21H40.308V13.51L37.746 21H36.892L34.372 13.51V21H33.574V11.2H34.372ZM47.3373 14.182C47.3373 14.182 47.3186 14.2987 47.2813 14.532C47.2533 14.7653 47.2393 15.0547 47.2393 15.4V20.944C47.2486 20.944 47.1926 20.9487 47.0713 20.958C46.95 20.958 46.7913 20.9673 46.5953 20.986C46.3993 20.9953 46.1893 21.0047 45.9653 21.014C45.7506 21.0233 45.5406 21.0327 45.3353 21.042C45.1393 21.0513 44.9806 21.056 44.8593 21.056C44.5233 21.0653 44.192 21.042 43.8653 20.986C43.548 20.93 43.254 20.818 42.9833 20.65C42.722 20.482 42.512 20.2347 42.3533 19.908C42.204 19.5813 42.1293 19.1567 42.1293 18.634V16.044C42.1293 15.624 42.1853 15.2787 42.2973 15.008C42.4186 14.728 42.5773 14.5087 42.7733 14.35C42.9693 14.182 43.1886 14.0653 43.4313 14C43.6833 13.9253 43.94 13.888 44.2013 13.888C44.4533 13.888 44.71 13.916 44.9713 13.972C45.242 14.0187 45.508 14.0887 45.7693 14.182C46.04 14.266 46.2966 14.3687 46.5393 14.49C46.5393 14.49 46.5533 14.42 46.5813 14.28C46.6186 14.14 46.6653 14.0093 46.7213 13.888L47.3373 14.182ZM42.8993 18.718C42.8993 19.0633 42.96 19.362 43.0813 19.614C43.212 19.8567 43.4033 20.0433 43.6553 20.174C43.9073 20.2953 44.2153 20.356 44.5793 20.356C44.8313 20.356 45.0693 20.3513 45.2933 20.342C45.5173 20.3327 45.7133 20.3233 45.8813 20.314C46.0586 20.3047 46.1986 20.2953 46.3013 20.286C46.404 20.2767 46.4553 20.272 46.4553 20.272V15.19C46.222 15.0873 45.998 15.0033 45.7833 14.938C45.5686 14.8633 45.3633 14.8027 45.1673 14.756C44.9806 14.7093 44.8033 14.6767 44.6353 14.658C44.4673 14.63 44.3133 14.616 44.1733 14.616C44.0613 14.616 43.9306 14.63 43.7813 14.658C43.6413 14.686 43.5013 14.7467 43.3613 14.84C43.2306 14.9333 43.1186 15.078 43.0253 15.274C42.9413 15.47 42.8993 15.7407 42.8993 16.086V18.718ZM52.647 14.938C52.4044 14.826 52.1337 14.742 51.835 14.686C51.5457 14.6207 51.2657 14.5833 50.995 14.574C50.5564 14.574 50.2017 14.6627 49.931 14.84C49.6604 15.0173 49.4644 15.2647 49.343 15.582C49.2217 15.89 49.1564 16.2447 49.147 16.646L49.133 18.396C49.133 18.7507 49.1657 19.0587 49.231 19.32C49.3057 19.572 49.4224 19.7773 49.581 19.936C49.7397 20.0947 49.9404 20.216 50.183 20.3C50.4257 20.3747 50.715 20.4167 51.051 20.426C51.2564 20.426 51.457 20.4167 51.653 20.398C51.8584 20.3793 52.0404 20.356 52.199 20.328C52.367 20.3 52.4977 20.2767 52.591 20.258C52.6844 20.2393 52.7264 20.23 52.717 20.23L52.871 20.93C52.5817 21.0047 52.2784 21.0607 51.961 21.098C51.6437 21.1447 51.331 21.1633 51.023 21.154C50.491 21.1447 50.0244 21.0513 49.623 20.874C49.2217 20.6873 48.909 20.4073 48.685 20.034C48.4704 19.6513 48.363 19.1613 48.363 18.564V16.534C48.363 16.002 48.4564 15.5353 48.643 15.134C48.839 14.7327 49.1284 14.42 49.511 14.196C49.903 13.972 50.3884 13.86 50.967 13.86C51.2844 13.86 51.6017 13.902 51.919 13.986C52.2457 14.07 52.5537 14.1773 52.843 14.308L52.647 14.938ZM56.0891 19.138C56.0891 19.39 56.1217 19.6093 56.1871 19.796C56.2617 19.9827 56.3644 20.1413 56.4951 20.272C56.6351 20.4027 56.8077 20.5053 57.0131 20.58L56.7891 21.182C56.5277 21.1073 56.3037 21.0093 56.1171 20.888C55.9304 20.7667 55.7764 20.6267 55.6551 20.468C55.5337 20.3 55.4451 20.1087 55.3891 19.894C55.3331 19.67 55.3051 19.418 55.3051 19.138V14.742H53.6111V14H57.8671V14.742H56.0891V19.138ZM59.4153 19.124C59.4153 19.376 59.4526 19.5907 59.5273 19.768C59.6113 19.936 59.7233 20.076 59.8633 20.188C60.0033 20.2907 60.1666 20.37 60.3533 20.426C60.5493 20.4727 60.7593 20.496 60.9833 20.496C61.3286 20.496 61.6693 20.4447 62.0053 20.342C62.3413 20.23 62.6819 20.0853 63.0273 19.908L63.3353 20.51C62.9899 20.7153 62.6119 20.8787 62.2013 21C61.7906 21.112 61.4079 21.168 61.0533 21.168C60.6986 21.168 60.3719 21.1353 60.0733 21.07C59.7746 21.0047 59.5179 20.8927 59.3033 20.734C59.0886 20.5753 58.9206 20.3653 58.7993 20.104C58.6873 19.8427 58.6313 19.516 58.6313 19.124V16.254C58.6313 15.722 58.7433 15.2787 58.9673 14.924C59.1913 14.5693 59.4993 14.3033 59.8913 14.126C60.2833 13.9487 60.7266 13.86 61.2213 13.86C61.7253 13.86 62.1593 13.9487 62.5233 14.126C62.8966 14.3033 63.1813 14.5647 63.3773 14.91C63.5826 15.2553 63.6853 15.6893 63.6853 16.212V18.032L59.4153 18.256V19.124ZM62.9013 16.114C62.9013 15.7873 62.8266 15.5073 62.6773 15.274C62.5279 15.0313 62.3273 14.8447 62.0753 14.714C61.8233 14.5833 61.5339 14.518 61.2073 14.518C60.8433 14.518 60.5259 14.588 60.2553 14.728C59.9846 14.8587 59.7746 15.0547 59.6253 15.316C59.4853 15.5773 59.4153 15.8947 59.4153 16.268V17.486L62.9013 17.332V16.114ZM69.7735 18.606C69.7735 19.1753 69.6848 19.6607 69.5075 20.062C69.3302 20.454 69.0642 20.7527 68.7095 20.958C68.3642 21.154 67.9302 21.252 67.4075 21.252C67.1835 21.252 66.9688 21.224 66.7635 21.168C66.5582 21.1213 66.3668 21.0513 66.1895 20.958C66.0215 20.8553 65.8675 20.7433 65.7275 20.622C65.5968 20.4913 65.4895 20.356 65.4055 20.216V23.954L64.5935 23.632V16.646C64.5935 15.7593 64.8222 15.078 65.2795 14.602C65.7462 14.126 66.3902 13.888 67.2115 13.888C68.0422 13.888 68.6768 14.1353 69.1155 14.63C69.5542 15.1153 69.7735 15.7873 69.7735 16.646V18.606ZM68.9895 16.646C68.9895 16.1887 68.9242 15.8107 68.7935 15.512C68.6722 15.2133 68.4808 14.9893 68.2195 14.84C67.9675 14.6907 67.6455 14.616 67.2535 14.616C66.8428 14.616 66.4975 14.6907 66.2175 14.84C65.9468 14.9893 65.7415 15.2133 65.6015 15.512C65.4708 15.8107 65.4055 16.1887 65.4055 16.646V18.648C65.4055 18.9467 65.4568 19.2127 65.5595 19.446C65.6622 19.6793 65.8022 19.8753 65.9795 20.034C66.1568 20.1927 66.3622 20.314 66.5955 20.398C66.8288 20.4727 67.0762 20.51 67.3375 20.51C67.6922 20.51 67.9908 20.4447 68.2335 20.314C68.4855 20.174 68.6722 19.9733 68.7935 19.712C68.9242 19.4507 68.9895 19.1193 68.9895 18.718V16.646ZM74.9595 14.938C74.7169 14.826 74.4462 14.742 74.1475 14.686C73.8582 14.6207 73.5782 14.5833 73.3075 14.574C72.8689 14.574 72.5142 14.6627 72.2435 14.84C71.9729 15.0173 71.7769 15.2647 71.6555 15.582C71.5342 15.89 71.4689 16.2447 71.4595 16.646L71.4455 18.396C71.4455 18.7507 71.4782 19.0587 71.5435 19.32C71.6182 19.572 71.7349 19.7773 71.8935 19.936C72.0522 20.0947 72.2529 20.216 72.4955 20.3C72.7382 20.3747 73.0275 20.4167 73.3635 20.426C73.5689 20.426 73.7695 20.4167 73.9655 20.398C74.1709 20.3793 74.3529 20.356 74.5115 20.328C74.6795 20.3 74.8102 20.2767 74.9035 20.258C74.9969 20.2393 75.0389 20.23 75.0295 20.23L75.1835 20.93C74.8942 21.0047 74.5909 21.0607 74.2735 21.098C73.9562 21.1447 73.6435 21.1633 73.3355 21.154C72.8035 21.1447 72.3369 21.0513 71.9355 20.874C71.5342 20.6873 71.2215 20.4073 70.9975 20.034C70.7829 19.6513 70.6755 19.1613 70.6755 18.564V16.534C70.6755 16.002 70.7689 15.5353 70.9555 15.134C71.1515 14.7327 71.4409 14.42 71.8235 14.196C72.2155 13.972 72.7009 13.86 73.2795 13.86C73.5969 13.86 73.9142 13.902 74.2315 13.986C74.5582 14.07 74.8662 14.1773 75.1555 14.308L74.9595 14.938ZM80.0116 19.348C80.1702 19.5627 80.3242 19.7447 80.4736 19.894C80.6229 20.0433 80.7629 20.1553 80.8936 20.23C81.0336 20.2953 81.1642 20.328 81.2856 20.328H81.3416V21H81.3136C80.9869 21 80.6929 20.9253 80.4316 20.776C80.1702 20.6173 79.9369 20.4167 79.7316 20.174C79.5262 19.9313 79.3349 19.6887 79.1576 19.446L77.7016 17.444L76.9316 18.228V21H76.1336V13.832L76.9316 14.014V17.164L79.8296 13.986H80.8656L78.2336 16.856L80.0116 19.348ZM87.3139 14.182C87.3139 14.182 87.2952 14.2987 87.2579 14.532C87.2299 14.7653 87.2159 15.0547 87.2159 15.4V20.944C87.2252 20.944 87.1692 20.9487 87.0479 20.958C86.9265 20.958 86.7679 20.9673 86.5719 20.986C86.3759 20.9953 86.1659 21.0047 85.9419 21.014C85.7272 21.0233 85.5172 21.0327 85.3119 21.042C85.1159 21.0513 84.9572 21.056 84.8359 21.056C84.4999 21.0653 84.1685 21.042 83.8419 20.986C83.5245 20.93 83.2305 20.818 82.9599 20.65C82.6985 20.482 82.4885 20.2347 82.3299 19.908C82.1805 19.5813 82.1059 19.1567 82.1059 18.634V16.044C82.1059 15.624 82.1619 15.2787 82.2739 15.008C82.3952 14.728 82.5539 14.5087 82.7499 14.35C82.9459 14.182 83.1652 14.0653 83.4079 14C83.6599 13.9253 83.9165 13.888 84.1779 13.888C84.4299 13.888 84.6865 13.916 84.9479 13.972C85.2185 14.0187 85.4845 14.0887 85.7459 14.182C86.0165 14.266 86.2732 14.3687 86.5159 14.49C86.5159 14.49 86.5299 14.42 86.5579 14.28C86.5952 14.14 86.6419 14.0093 86.6979 13.888L87.3139 14.182ZM82.8759 18.718C82.8759 19.0633 82.9365 19.362 83.0579 19.614C83.1885 19.8567 83.3799 20.0433 83.6319 20.174C83.8839 20.2953 84.1919 20.356 84.5559 20.356C84.8079 20.356 85.0459 20.3513 85.2699 20.342C85.4939 20.3327 85.6899 20.3233 85.8579 20.314C86.0352 20.3047 86.1752 20.2953 86.2779 20.286C86.3805 20.2767 86.4319 20.272 86.4319 20.272V15.19C86.1985 15.0873 85.9745 15.0033 85.7599 14.938C85.5452 14.8633 85.3399 14.8027 85.1439 14.756C84.9572 14.7093 84.7799 14.6767 84.6119 14.658C84.4439 14.63 84.2899 14.616 84.1499 14.616C84.0379 14.616 83.9072 14.63 83.7579 14.658C83.6179 14.686 83.4779 14.7467 83.3379 14.84C83.2072 14.9333 83.0952 15.078 83.0019 15.274C82.9179 15.47 82.8759 15.7407 82.8759 16.086V18.718ZM90.8876 13.86C91.1396 13.86 91.3963 13.8647 91.6576 13.874C91.9283 13.8833 92.1803 13.8973 92.4136 13.916C92.6563 13.9253 92.8709 13.9393 93.0576 13.958C93.2443 13.9767 93.3936 13.9907 93.5056 14C93.6176 14.0093 93.6736 14.014 93.6736 14.014V21H92.9036V18.242H90.7336C90.7149 18.242 90.6683 18.242 90.5936 18.242C90.5189 18.242 90.4443 18.242 90.3696 18.242C90.3043 18.2327 90.2576 18.228 90.2296 18.228L89.1936 21H88.3956L89.5016 18.032C89.2776 17.9293 89.0723 17.7893 88.8856 17.612C88.7083 17.4347 88.5683 17.22 88.4656 16.968C88.3629 16.7067 88.3116 16.4173 88.3116 16.1C88.3116 15.708 88.4003 15.344 88.5776 15.008C88.7643 14.6627 89.0489 14.3873 89.4316 14.182C89.8143 13.9673 90.2996 13.86 90.8876 13.86ZM90.3836 17.458H92.9036V14.658C92.9036 14.658 92.8476 14.658 92.7356 14.658C92.6329 14.6487 92.4883 14.6393 92.3016 14.63C92.1243 14.6207 91.9236 14.616 91.6996 14.616C91.4756 14.6067 91.2516 14.602 91.0276 14.602C90.4396 14.602 89.9683 14.742 89.6136 15.022C89.2683 15.302 89.0956 15.6473 89.0956 16.058C89.0956 16.3287 89.1376 16.5573 89.2216 16.744C89.3056 16.9213 89.4129 17.066 89.5436 17.178C89.6836 17.2807 89.8283 17.3553 89.9776 17.402C90.1269 17.4393 90.2623 17.458 90.3836 17.458Z" fill="#B0B0B0"/>
</svg>
