<svg width="146" height="146" viewBox="0 0 146 146" fill="none" xmlns="http://www.w3.org/2000/svg">
<path opacity="0.3" d="M63.174 80.8604L57.9875 99.3347H73.35L64.487 128.291L96.8862 87.3461H81.458L100.694 54.361C101.503 52.9669 102.003 51.4158 102.16 49.8125C102.318 48.2092 102.129 46.5908 101.606 45.0666C101.083 43.5424 100.239 42.1477 99.1306 40.9766C98.022 39.8055 96.6746 38.8853 95.1792 38.2779L6.54922 2.24653C6.05952 2.04541 5.52833 1.96549 5.00097 2.01361C4.47362 2.06172 3.96576 2.23643 3.52073 2.52283C3.0757 2.80923 2.70671 3.19881 2.44525 3.65834C2.1838 4.11786 2.03764 4.63369 2.01924 5.16179C1.49402 23.9309 11.867 31.1699 15.3794 32.4474C18.8918 33.7248 59.7272 48.8253 59.7272 48.8253L12.0968 38.3434C11.8139 38.2773 11.5184 38.2873 11.2406 38.3724C10.9628 38.4575 10.7127 38.6147 10.5157 38.8279C10.3187 39.0411 10.182 39.3027 10.1195 39.5859C10.0571 39.8691 10.071 40.1637 10.1601 40.4398C12.2281 46.9909 18.4979 63.0085 29.8556 63.3688L59.7929 64.3188L28.4441 68.9046C28.1786 68.9399 27.9258 69.0396 27.7078 69.1949C27.4898 69.3502 27.3132 69.5564 27.1934 69.7955C27.0736 70.0346 27.0143 70.2993 27.0206 70.5665C27.0269 70.8337 27.0986 71.0953 27.2296 71.3285C30.1511 76.3729 38.4889 88.0667 50.9955 84.7911L63.174 80.8604Z" stroke="#B8B8B8" stroke-width="3" stroke-linecap="round" stroke-linejoin="round"/>
<path d="M22.3068 126.455H24.0682V136.085C24.0682 137.08 23.8338 137.967 23.3651 138.749C22.901 139.525 22.2453 140.138 21.3977 140.588C20.5502 141.033 19.5559 141.256 18.4148 141.256C17.2737 141.256 16.2794 141.033 15.4318 140.588C14.5843 140.138 13.9261 139.525 13.4574 138.749C12.9934 137.967 12.7614 137.08 12.7614 136.085V126.455H14.5227V135.943C14.5227 136.653 14.679 137.286 14.9915 137.839C15.304 138.389 15.7491 138.822 16.3267 139.139C16.9091 139.452 17.6051 139.608 18.4148 139.608C19.2244 139.608 19.9205 139.452 20.5028 139.139C21.0852 138.822 21.5303 138.389 21.8381 137.839C22.1506 137.286 22.3068 136.653 22.3068 135.943V126.455ZM27.3583 145.091V130.091H28.9776V131.824H29.1765C29.2996 131.634 29.4701 131.393 29.6879 131.099C29.9104 130.801 30.2276 130.536 30.6396 130.304C31.0562 130.067 31.6197 129.949 32.3299 129.949C33.2485 129.949 34.0581 130.179 34.7589 130.638C35.4596 131.097 36.0065 131.748 36.3995 132.591C36.7925 133.434 36.989 134.428 36.989 135.574C36.989 136.729 36.7925 137.731 36.3995 138.578C36.0065 139.421 35.462 140.074 34.766 140.538C34.07 140.998 33.2674 141.227 32.3583 141.227C31.6576 141.227 31.0965 141.111 30.6751 140.879C30.2537 140.643 29.9293 140.375 29.7021 140.077C29.4748 139.774 29.2996 139.523 29.1765 139.324H29.0344V145.091H27.3583ZM29.006 135.545C29.006 136.369 29.1268 137.096 29.3683 137.726C29.6097 138.351 29.9625 138.841 30.4265 139.196C30.8905 139.546 31.4587 139.722 32.131 139.722C32.8318 139.722 33.4165 139.537 33.8853 139.168C34.3588 138.794 34.7139 138.292 34.9506 137.662C35.1921 137.027 35.3129 136.322 35.3129 135.545C35.3129 134.778 35.1945 134.087 34.9577 133.472C34.7257 132.851 34.373 132.361 33.8995 132.001C33.4308 131.637 32.8413 131.455 32.131 131.455C31.4492 131.455 30.8763 131.627 30.4123 131.973C29.9483 132.314 29.5979 132.792 29.3612 133.408C29.1244 134.018 29.006 134.731 29.006 135.545ZM43.9492 145.318C43.1396 145.318 42.4435 145.214 41.8612 145.006C41.2788 144.802 40.7934 144.532 40.4052 144.196C40.0217 143.865 39.7163 143.509 39.489 143.131L40.8242 142.193C40.9757 142.392 41.1675 142.619 41.3995 142.875C41.6315 143.135 41.9487 143.36 42.3512 143.55C42.7584 143.744 43.2911 143.841 43.9492 143.841C44.8299 143.841 45.5567 143.628 46.1296 143.202C46.7025 142.776 46.989 142.108 46.989 141.199V138.983H46.8469C46.7238 139.182 46.5487 139.428 46.3214 139.722C46.0988 140.01 45.7769 140.268 45.3555 140.496C44.9388 140.718 44.3754 140.83 43.6651 140.83C42.7844 140.83 41.9937 140.621 41.293 140.205C40.5969 139.788 40.0453 139.182 39.6381 138.386C39.2357 137.591 39.0344 136.625 39.0344 135.489C39.0344 134.371 39.2309 133.398 39.6239 132.57C40.0169 131.736 40.5638 131.092 41.2646 130.638C41.9653 130.179 42.775 129.949 43.6935 129.949C44.4038 129.949 44.9672 130.067 45.3839 130.304C45.8053 130.536 46.1272 130.801 46.3498 131.099C46.5771 131.393 46.7522 131.634 46.8754 131.824H47.0458V130.091H48.6651V141.312C48.6651 142.25 48.4521 143.012 48.0259 143.599C47.6045 144.191 47.0363 144.625 46.3214 144.899C45.6112 145.179 44.8204 145.318 43.9492 145.318ZM43.8924 139.324C44.5647 139.324 45.1329 139.17 45.5969 138.862C46.061 138.554 46.4137 138.112 46.6552 137.534C46.8967 136.956 47.0174 136.265 47.0174 135.46C47.0174 134.674 46.899 133.981 46.6623 133.379C46.4255 132.778 46.0752 132.307 45.6112 131.966C45.1471 131.625 44.5742 131.455 43.8924 131.455C43.1822 131.455 42.5903 131.634 42.1168 131.994C41.6481 132.354 41.2953 132.837 41.0586 133.443C40.8266 134.049 40.7106 134.722 40.7106 135.46C40.7106 136.218 40.829 136.888 41.0657 137.47C41.3072 138.048 41.6623 138.502 42.131 138.834C42.6045 139.161 43.1916 139.324 43.8924 139.324ZM51.7333 141V130.091H53.3526V131.739H53.4663C53.6651 131.199 54.025 130.761 54.5458 130.425C55.0666 130.089 55.6538 129.92 56.3072 129.92C56.4303 129.92 56.5842 129.923 56.7688 129.928C56.9535 129.932 57.0932 129.939 57.1879 129.949V131.653C57.131 131.639 57.0008 131.618 56.7972 131.589C56.5984 131.556 56.3877 131.54 56.1651 131.54C55.6348 131.54 55.1613 131.651 54.7447 131.874C54.3327 132.091 54.006 132.394 53.7646 132.783C53.5278 133.166 53.4094 133.604 53.4094 134.097V141H51.7333ZM62.3849 141.256C61.6937 141.256 61.0663 141.125 60.5028 140.865C59.9394 140.6 59.492 140.219 59.1605 139.722C58.8291 139.22 58.6634 138.614 58.6634 137.903C58.6634 137.278 58.7865 136.772 59.0327 136.384C59.2789 135.991 59.608 135.683 60.0199 135.46C60.4318 135.238 60.8864 135.072 61.3835 134.963C61.8854 134.849 62.3897 134.759 62.8963 134.693C63.5592 134.608 64.0966 134.544 64.5085 134.501C64.9252 134.454 65.2282 134.376 65.4176 134.267C65.6117 134.158 65.7088 133.969 65.7088 133.699V133.642C65.7088 132.941 65.517 132.397 65.1335 132.009C64.7547 131.62 64.1795 131.426 63.4077 131.426C62.6075 131.426 61.9801 131.601 61.5256 131.952C61.071 132.302 60.7514 132.676 60.5668 133.074L58.9759 132.506C59.2599 131.843 59.6387 131.327 60.1122 130.957C60.5904 130.583 61.1113 130.323 61.6747 130.176C62.2429 130.025 62.8016 129.949 63.3509 129.949C63.7012 129.949 64.1037 129.991 64.5582 130.077C65.0175 130.157 65.4602 130.325 65.8864 130.581C66.3172 130.837 66.6747 131.223 66.9588 131.739C67.2429 132.255 67.3849 132.946 67.3849 133.812V141H65.7088V139.523H65.6236C65.5099 139.759 65.3205 140.013 65.0554 140.283C64.7902 140.553 64.4375 140.782 63.9972 140.972C63.5568 141.161 63.0194 141.256 62.3849 141.256ZM62.6406 139.75C63.3035 139.75 63.8622 139.62 64.3168 139.359C64.776 139.099 65.1217 138.763 65.3537 138.351C65.5904 137.939 65.7088 137.506 65.7088 137.051V135.517C65.6378 135.602 65.4815 135.68 65.2401 135.751C65.0033 135.818 64.7287 135.877 64.4162 135.929C64.1084 135.976 63.8078 136.019 63.5142 136.057C63.2254 136.09 62.991 136.118 62.8111 136.142C62.3755 136.199 61.9683 136.291 61.5895 136.419C61.2154 136.542 60.9124 136.729 60.6804 136.98C60.4531 137.226 60.3395 137.562 60.3395 137.989C60.3395 138.571 60.5549 139.011 60.9858 139.31C61.4214 139.603 61.973 139.75 62.6406 139.75ZM74.5636 141.227C73.6545 141.227 72.8519 140.998 72.1559 140.538C71.4599 140.074 70.9154 139.421 70.5224 138.578C70.1294 137.731 69.9329 136.729 69.9329 135.574C69.9329 134.428 70.1294 133.434 70.5224 132.591C70.9154 131.748 71.4622 131.097 72.163 130.638C72.8638 130.179 73.6734 129.949 74.592 129.949C75.3022 129.949 75.8633 130.067 76.2752 130.304C76.6919 130.536 77.0091 130.801 77.2269 131.099C77.4495 131.393 77.6223 131.634 77.7454 131.824H77.8874V126.455H79.5636V141H77.9442V139.324H77.7454C77.6223 139.523 77.4471 139.774 77.2198 140.077C76.9925 140.375 76.6682 140.643 76.2468 140.879C75.8254 141.111 75.2643 141.227 74.5636 141.227ZM74.7908 139.722C75.4632 139.722 76.0314 139.546 76.4954 139.196C76.9594 138.841 77.3121 138.351 77.5536 137.726C77.7951 137.096 77.9158 136.369 77.9158 135.545C77.9158 134.731 77.7975 134.018 77.5607 133.408C77.324 132.792 76.9736 132.314 76.5096 131.973C76.0456 131.627 75.4727 131.455 74.7908 131.455C74.0806 131.455 73.4888 131.637 73.0153 132.001C72.5465 132.361 72.1938 132.851 71.957 133.472C71.725 134.087 71.609 134.778 71.609 135.545C71.609 136.322 71.7274 137.027 71.9641 137.662C72.2056 138.292 72.5607 138.794 73.0295 139.168C73.503 139.537 74.0901 139.722 74.7908 139.722ZM87.44 141.227C86.3888 141.227 85.4821 140.995 84.7198 140.531C83.9622 140.062 83.3775 139.409 82.9656 138.571C82.5584 137.728 82.3548 136.748 82.3548 135.631C82.3548 134.513 82.5584 133.528 82.9656 132.676C83.3775 131.819 83.9504 131.152 84.6843 130.673C85.4229 130.19 86.2847 129.949 87.2695 129.949C87.8377 129.949 88.3988 130.044 88.9528 130.233C89.5067 130.422 90.011 130.73 90.4656 131.156C90.9201 131.578 91.2823 132.136 91.5522 132.832C91.8221 133.528 91.957 134.385 91.957 135.403V136.114H83.5479V134.665H90.2525C90.2525 134.049 90.1294 133.5 89.8832 133.017C89.6417 132.534 89.296 132.153 88.8462 131.874C88.4012 131.594 87.8756 131.455 87.2695 131.455C86.6019 131.455 86.0243 131.62 85.5366 131.952C85.0536 132.278 84.6819 132.705 84.4215 133.23C84.1611 133.756 84.0309 134.319 84.0309 134.92V135.886C84.0309 136.71 84.1729 137.409 84.457 137.982C84.7459 138.55 85.146 138.983 85.6573 139.281C86.1687 139.575 86.7629 139.722 87.44 139.722C87.8803 139.722 88.2781 139.66 88.6332 139.537C88.993 139.409 89.3031 139.22 89.5636 138.969C89.824 138.713 90.0252 138.396 90.1673 138.017L91.7866 138.472C91.6161 139.021 91.3297 139.504 90.9272 139.92C90.5247 140.332 90.0276 140.654 89.4357 140.886C88.8439 141.114 88.1786 141.227 87.44 141.227Z" fill="white"/>
<path d="M59.752 88.4766C62.4904 88.4766 64.7103 86.3717 64.7103 83.7753C64.7103 81.1788 62.4904 79.074 59.752 79.074C57.0136 79.074 54.7936 81.1788 54.7936 83.7753C54.7936 86.3717 57.0136 88.4766 59.752 88.4766Z" stroke="#B8B8B8" stroke-width="2" stroke-linecap="round" stroke-linejoin="round"/>
<path d="M59.7521 83.7751V93.1772" stroke="#B8B8B8" stroke-width="2" stroke-linecap="round" stroke-linejoin="round"/>
<path d="M99.4215 56.2239V44.7522" stroke="#B8B8B8" stroke-width="3" stroke-linecap="round" stroke-linejoin="round"/>
<path d="M99.4214 56.2239L92.1158 64.8123" stroke="#B8B8B8" stroke-width="3" stroke-linecap="round" stroke-linejoin="round"/>
<path d="M88.8431 49.9238L99.4216 56.2238" stroke="#B8B8B8" stroke-width="3" stroke-linecap="round" stroke-linejoin="round"/>
<path d="M99.4215 56.2239L106.727 64.8123" stroke="#B8B8B8" stroke-width="3" stroke-linecap="round" stroke-linejoin="round"/>
<path d="M110 49.9238L99.4215 56.2238" stroke="#B8B8B8" stroke-width="3" stroke-linecap="round" stroke-linejoin="round"/>
<path d="M133.801 57.6596V46.1938" stroke="#B8B8B8" stroke-width="3" stroke-linecap="round" stroke-linejoin="round"/>
<path d="M133.801 57.6597L126.496 66.2541" stroke="#B8B8B8" stroke-width="3" stroke-linecap="round" stroke-linejoin="round"/>
<path d="M123.223 51.3596L133.801 57.6596" stroke="#B8B8B8" stroke-width="3" stroke-linecap="round" stroke-linejoin="round"/>
<path d="M133.801 57.6597L141.107 66.2541" stroke="#B8B8B8" stroke-width="3" stroke-linecap="round" stroke-linejoin="round"/>
<path d="M144.38 51.3596L133.801 57.6596" stroke="#B8B8B8" stroke-width="3" stroke-linecap="round" stroke-linejoin="round"/>
<path d="M89.5042 77.7008V104.931C89.5042 108.404 86.5555 111.2 82.8924 111.2H36.6118C32.9487 111.2 30 108.404 30 104.931V70.4529C30 66.9797 32.9487 64.1838 36.6118 64.1838H75.2482" stroke="#B8B8B8" stroke-width="3" stroke-linecap="round" stroke-linejoin="round"/>
<path d="M39.9789 46.8065C39.9789 36.4201 48.8594 28 59.8136 28C70.7678 28 79.6483 36.4201 79.6483 46.8065" stroke="#B8B8B8" stroke-width="3" stroke-linecap="round" stroke-linejoin="round"/>
<path d="M79.6476 46.8064V53.0736" stroke="#B8B8B8" stroke-width="3" stroke-linecap="round" stroke-linejoin="round"/>
<path d="M39.9788 45.2393V53.073" stroke="#B8B8B8" stroke-width="3" stroke-linecap="round" stroke-linejoin="round"/>
</svg>
